<?xml version="1.0" encoding="utf-8"?>
<!-- Generator: Adobe Illustrator 21.1.0, SVG Export Plug-In . SVG Version: 6.00 Build 0)  -->
<svg version="1.1" id="Layer_19" xmlns="http://www.w3.org/2000/svg" xmlns:xlink="http://www.w3.org/1999/xlink" x="0px" y="0px"
	 viewBox="0 0 3840 3840" style="enable-background:new 0 0 3840 3840;" xml:space="preserve">
<style type="text/css">
	.st0{fill:#FFFFFF;}
	.st1{fill:#F4920B;}
</style>
<rect x="8.8" y="0" class="st0" width="3840" height="3840"/>
<g>
	<polygon class="st1" points="3708.1,1091.2 2651.5,1421.9 2880.1,1567 3435.1,1306.3 2987.6,1635.2 3029.1,1854 3135.6,1729.1 
		3454.8,1931.6 	"/>
	<path d="M1020.4,1950.2l-38.7-109l-181.4,48.6l-24.6,126l-200.4,53.7L749,1374.4l226.6-60.7l230.5,586.7L1020.4,1950.2z
		 M879.9,1532c-5.1-19.1-8.1-33.1-9-41.9l-4.2,1.1l-2.4,23.2l-6.2,41L826.2,1730l108-28.9l-48.6-149.3L879.9,1532z"/>
	<path d="M1624.6,1322.5c-34.3-8.6-64.1-13.1-89.6-13.5c-25.4-0.4-50.1,2.6-74,9c-19.1,5.1-33.2,13.3-42.1,24.4
		c-8.9,11.1-11.6,23.3-8.1,36.5c3.3,12.4,10.7,21.9,22.1,28.5c11.4,6.6,34.2,14.1,68.4,22.4c54.6,12.5,95,29.6,121.2,51.4
		c26.2,21.8,44.8,53.3,55.9,94.7c10.5,39.1,8.9,76.9-4.7,113.4c-13.6,36.5-37.6,67.4-72,92.5c-34.4,25.2-77.9,44.8-130.5,58.9
		c-38.3,10.3-75.2,15.5-110.8,15.9c-35.6,0.4-67.8-2.9-96.4-9.7l-8.4-157.8c64.4,25.3,124.1,30.5,179.2,15.7
		c43.9-11.8,61.6-33.2,53.3-64.5c-3.8-14.1-12.3-24.4-25.7-30.9c-13.4-6.5-35.3-12.3-65.9-17.4c-51.3-9.2-90.3-24.4-117-45.8
		c-26.7-21.3-45.5-52.7-56.6-94c-10.5-39.1-9.3-77.3,3.6-114.7c12.9-37.4,35.8-69,68.7-94.8c32.9-25.8,73.8-45.3,122.7-58.4
		c38.8-10.4,74.6-16.2,107.3-17.4c32.7-1.2,62.7-0.7,90.2,1.6L1624.6,1322.5z"/>
	<path d="M2221,1132.8l-171.3,45.9l22.6,406.8L1893,1716.4l-26.4-488.6l-169.2,45.3l-8.3-150.6L2221,980V1132.8z"/>
	<path d="M842.2,2319.9c12.3,45.9,7,89.3-15.9,130.4c-22.9,41.1-59.4,73.4-109.5,96.7l0.5,1.7c48.5,4.5,86.2,33,112.9,85.5
		l76.2,149.2l-193.7,51.9l-58.4-128.6c-11.3-24.1-24.7-41.2-40.2-51.4c-15.5-10.2-34.8-12.1-57.9-6l-1.7,0.5l12.3,224.6l-182.3,48.8
		L350.1,2284l237.6-63.7c66.9-17.9,122.8-18.3,167.5-1C799.9,2236.6,828.9,2270.1,842.2,2319.9z M656.8,2405.8
		c-5.4-20.3-15.2-34.5-29.3-42.8c-14.1-8.3-32.3-9.4-54.5-3.5l-32.5,8.7l5.9,146.8l40.5-10.9c27.3-7.3,47.2-20.3,59.6-39
		C658.9,2446.4,662.3,2426.6,656.8,2405.8z"/>
	<path d="M1324.2,2175.8l-194.5,52.1l5.5,93l182.3-48.8l8.3,150.6l-182.3,48.8l4.9,94.1l208-55.7l7.8,150.8l-390.3,104.6L939.5,2126
		l376.8-101L1324.2,2175.8z"/>
	<path d="M1920.6,2059c12.2,45.6,11.6,89.1-1.8,130.7c-13.4,41.6-38.2,76.7-74.2,105.4c-36,28.6-81.6,50.4-136.8,65.1l-86.5,23.2
		l6.6,126.6l-177.3,127.7l-34.3-639.3l244.3-65.5c68.1-18.2,124.5-16.5,169.1,5.1C1874.5,1959.6,1904.7,1999.9,1920.6,2059z
		 M1730.3,2123.5c-5.6-20.8-16.3-35-32.2-42.7c-15.9-7.6-36-8.2-60.2-1.7l-32.1,8.6l9.2,157.6l51.1-13.7c26.2-7,45.1-20.6,56.7-40.7
		C1734.4,2170.8,1736.9,2148.3,1730.3,2123.5z"/>
	<polygon points="346.3,1751.8 339.5,1637 536.6,1584.2 528.7,1433.4 149.4,1535.1 183.7,2174.4 183.8,2174.4 361.4,2045.7 
		353.3,1902.8 533.1,1854.7 526.1,1703.7 	"/>
	<g>
		<path d="M1406.5,2940.5l-38.6,10.3l-21.7-69.6c-0.7-2.4-1.2-6-1.6-10.7l-0.3-3.1l-0.3,0.1c0,1.1-0.1,3.3-0.4,6.6
			c-0.3,3.3-0.7,6.3-1.1,8.9l-13.9,78.3l-42.2,11.3l-36-121.3l38.8-10.4l15.9,73.2c0.7,3.6,1.4,8.4,2,14.4l0.5-0.1
			c0-1.6,0.1-4.2,0.4-7.6c0.3-3.5,0.6-6.2,1-8.3l14.1-80.6l39.9-10.7l20.2,72.6c0.4,1.6,0.9,3.9,1.6,7c0.6,3.1,1,5.2,1.2,6.5
			l0.3-0.1l0.6-15l5.9-79l37.9-10.2L1406.5,2940.5z"/>
		<path d="M1527.8,2908l-7.8-22l-36.6,9.8l-5,25.4l-40.5,10.8l35.1-140.3l45.7-12.3l46.5,118.4L1527.8,2908z M1499.4,2823.6
			c-1-3.9-1.6-6.7-1.8-8.5l-0.9,0.2l-0.5,4.7l-1.3,8.3l-6.4,35.2l21.8-5.8l-9.8-30.1L1499.4,2823.6z"/>
		<path d="M1616,2884.4l-36.8,9.9l-6.9-129.1l36.8-9.9L1616,2884.4z"/>
		<path d="M1731.1,2753.5l-34.6,9.3l5.3,98.6l-37,9.9l-5.3-98.6l-34.2,9.2l-1.7-30.4l105.7-28.3L1731.1,2753.5z"/>
		<path d="M1787.7,2838.4l-36.8,9.9l-6.9-129.1l36.8-9.9L1787.7,2838.4z"/>
		<path d="M1931.7,2799.8l-29,7.8l-51.5-50.3c-4.7-4.8-8-8.4-9.7-10.9l-0.3,0.1c0.8,7.1,1.4,14.2,1.6,21.3l2.8,55.1l-34,9.1
			l-6.9-129.1l31.8-8.5l49.4,47.6c1,0.9,2.5,2.4,4.4,4.5c1.9,2.1,3.3,4,4.3,5.7l0.4-0.1c-0.4-2.1-0.6-4.5-0.8-6.9l-3.5-65.2
			l34.1-9.1L1931.7,2799.8z"/>
		<path d="M2048.5,2675.9c-4.9-1.3-10.2-2-16-2c-5.8,0-11.3,0.7-16.4,2.1c-12.9,3.5-22.1,9.9-27.4,19.2c-5.3,9.3-6.3,20.4-2.8,33.4
			c2.2,8.2,5.9,14,11.1,17.4c5.2,3.4,11.5,4.1,18.9,2.1c2.6-0.7,5.1-1.7,7.4-3l-0.9-18.8l-22.5,6l-1.5-29.4l59.3-15.9l3.6,69.5
			c-12,10.5-26.4,17.9-42.9,22.4c-18,4.8-33.3,3.8-45.8-3c-12.5-6.8-21.1-18.9-25.7-36.2c-3.7-13.7-3.6-27.1,0.1-40
			c3.8-12.9,10.9-24,21.4-33.2c10.5-9.2,24-16,40.3-20.4c11.4-3,24.1-4.3,38.4-3.7L2048.5,2675.9z"/>
		<path d="M2251.1,2714.2l-29,7.8l-51.5-50.3c-4.7-4.8-8-8.4-9.7-10.9l-0.3,0.1c0.8,7.1,1.4,14.2,1.6,21.3l2.8,55.1l-34,9.1
			l-6.9-129.1l31.8-8.5l49.4,47.6c1,0.9,2.5,2.4,4.4,4.5c1.9,2.1,3.3,4,4.3,5.7l0.4-0.1c-0.4-2.1-0.6-4.5-0.8-6.9l-3.5-65.2
			l34.1-9.1L2251.1,2714.2z"/>
		<path d="M2384.3,2602.8c3.6,13.4,4,26.7,1.2,39.8c-2.8,13.1-8.6,24.1-17.4,32.9c-8.8,8.8-20.4,15.1-34.8,19
			c-10.9,2.9-20.9,3.2-29.9,0.9c-9.1-2.3-16.7-7-23.1-14c-6.3-7-10.9-15.7-13.7-26.2c-3.6-13.5-4-26.8-1.1-39.9
			c2.9-13.1,8.7-24,17.6-32.9c8.8-8.9,20.1-15.2,33.9-18.9c16.4-4.4,30.6-3.1,42.6,3.9C2371.6,2574.4,2379.8,2586.2,2384.3,2602.8z
			 M2345.5,2614.5c-2-7.4-5.1-12.7-9.2-15.8c-4.1-3.1-9.1-3.8-14.9-2.3c-5.3,1.4-9.5,4.5-12.5,9.1c-3,4.6-4.8,10.4-5.3,17.4
			c-0.5,6.9,0.1,13.9,2,20.8c2,7.6,5.1,12.8,9.3,15.8c4.2,3,9,3.8,14.5,2.3c5.1-1.4,9.3-4.2,12.4-8.4c3.2-4.3,5.1-10,5.8-17.1
			C2348.2,2629.2,2347.5,2621.9,2345.5,2614.5z"/>
		<path d="M2604.3,2619.6l-36.3,9.7l-4-76l-0.9-19.4l-0.7,0.2l-2.2,16.8l-14.3,84.3l-33.8,9.1l-23.3-69.6
			c-1.6-4.7-3.5-11.1-5.7-19.3l-0.8,0.2c1.7,13,2.9,25,3.5,35.9l3.1,59l-32.6,8.7l-6.9-129.1l51.6-13.8l23.8,71.9
			c1,3.7,1.9,7.6,2.7,11.6l0.5-0.1c0.2-3,0.5-6.1,0.7-9.4c0.2-3.3,0.6-6.2,1-8.9l11.6-75.9l56.2-15.1L2604.3,2619.6z"/>
		<path d="M2737.5,2508.2c3.6,13.4,4,26.7,1.2,39.8s-8.6,24.1-17.4,32.9c-8.8,8.8-20.4,15.1-34.8,19c-10.9,2.9-20.9,3.2-29.9,0.9
			c-9.1-2.3-16.7-7-23.1-14c-6.3-7-10.9-15.7-13.7-26.2c-3.6-13.5-4-26.8-1.1-39.9c2.9-13.1,8.7-24,17.6-32.9
			c8.8-8.9,20.1-15.2,33.9-18.9c16.4-4.4,30.6-3.1,42.6,3.9C2724.8,2479.7,2733.1,2491.6,2737.5,2508.2z M2698.7,2519.9
			c-2-7.4-5.1-12.7-9.2-15.7c-4.1-3.1-9.1-3.8-14.9-2.3c-5.3,1.4-9.5,4.5-12.5,9.1c-3,4.6-4.8,10.4-5.3,17.4
			c-0.5,6.9,0.1,13.9,2,20.8c2,7.6,5.1,12.8,9.3,15.8c4.2,3,9,3.8,14.5,2.3c5.1-1.4,9.3-4.2,12.4-8.4c3.2-4.3,5.1-10,5.8-17.1
			C2701.4,2534.5,2700.7,2527.2,2698.7,2519.9z"/>
		<path d="M2854.2,2455.6c2.5,9.3,1.4,18-3.2,26.3c-4.6,8.3-12,14.8-22.1,19.5l0.1,0.3c9.8,0.9,17.4,6.7,22.8,17.3l15.4,30.1
			l-39.1,10.5l-11.8-26c-2.3-4.9-5-8.3-8.1-10.4c-3.1-2-7-2.5-11.7-1.2l-0.3,0.1l2.5,45.3l-36.8,9.9l-6.9-129.1l48-12.8
			c13.5-3.6,24.8-3.7,33.8-0.2C2845.6,2438.8,2851.5,2445.5,2854.2,2455.6z M2816.7,2472.9c-1.1-4.1-3.1-7-5.9-8.6
			c-2.9-1.7-6.5-1.9-11-0.7l-6.6,1.8l1.2,29.6l8.2-2.2c5.5-1.5,9.5-4.1,12-7.9C2817.1,2481.1,2817.8,2477.1,2816.7,2472.9z"/>
		<path d="M2951.4,2426.5l-39.3,10.5l1.1,18.8l36.8-9.9l1.7,30.4l-36.8,9.9l1,19l42-11.3l1.6,30.4l-78.8,21.1l-6.9-129.1l76.1-20.4
			L2951.4,2426.5z"/>
	</g>
	<g>
		<path d="M2339.6,984.9c1.6,9.2,0.3,17.5-4.1,25.1c-4.4,7.5-11.2,13.6-20.5,18.3l0.1,0.4c8-0.9,14.6,0.8,20,5.2
			c5.4,4.4,8.8,10.9,10.4,19.4c1.7,9.3,0.9,17.8-2.2,25.8c-3.1,7.9-8.5,14.8-16.2,20.8c-7.7,5.9-17.6,10.5-29.6,13.7l-57.9,15.4
			l-0.1-153.3l50.9-13.6c14.6-3.9,25.9-4,33.9-0.3C2332.4,965.5,2337.5,973.2,2339.6,984.9z M2301.6,1004c-0.9-4.9-2.7-8-5.4-9.4
			c-2.7-1.4-6.9-1.3-12.7,0.2l-6.8,1.8l0,29l11.6-3.1c4.6-1.2,8.1-3.6,10.6-7.2C2301.5,1011.7,2302.4,1008,2301.6,1004z
			 M2305.7,1062.9c-0.7-4-2.4-7-5-8.8c-2.6-1.9-5.9-2.3-9.7-1.3l-14,3.7l-0.3,31.4l13.1-3.5c5.9-1.6,10.3-4.3,13.1-8.1
			C2305.7,1072.5,2306.6,1068,2305.7,1062.9z"/>
		<path d="M2440.4,958.2l-39.8,10.6l0.1,22.3l37.3-9.9l0.1,36.1l-37.3,9.9l0,22.6l42.5-11.3l0,36.2l-79.8,21.3l-0.1-153.3l77.1-20.5
			L2440.4,958.2z"/>
		<path d="M2558.5,926.8l-35,9.3l0.1,117.2l-37.4,10l-0.1-117.2l-34.6,9.2l-0.1-36.1l107.1-28.6L2558.5,926.8z"/>
		<path d="M2648.3,1020l-6.6-26.5l-37.1,9.9l-6.3,29.9l-41,10.9l42.4-164.7l46.3-12.4l40.2,142.6L2648.3,1020z M2624.4,918.6
			c-0.8-4.6-1.3-8-1.4-10.1l-0.9,0.2l-0.7,5.5l-1.7,9.8l-8.3,41.5l22.1-5.9l-8.2-36.2L2624.4,918.6z"/>
	</g>
	<path d="M2672.7,1934.3l1.7-0.5c3.8-36.3,6.9-58.8,9-67.5l5.1-21.9l-37,27.3C2660,1892.6,2667.1,1913.4,2672.7,1934.3z"/>
	<polygon points="2575.4,1687.7 2377.5,1740.7 2463.2,1893.1 2614.2,1781.7 	"/>
	<path d="M2904.6,1685l-216.1,159.5l-5.1,21.9c-2.2,8.7-5.2,31.2-9,67.5l-1.7,0.5c-5.6-20.9-12.7-41.8-21.2-62.5L2510,1976.3
		l75.7,134.7l11.7,219.4l178.5-133.5l-7.8-137.5L2904.6,1685z"/>
	<polygon points="2200.6,2283.8 2196.5,2207.7 2018.4,2339.1 2026.1,2483.4 2416.4,2378.8 2408.6,2228.1 	"/>
	<polygon points="2174.1,1795.2 1991.9,1844.1 2012.3,2225.9 2190.3,2094.6 	"/>
</g>
</svg>
