<?xml version="1.0" encoding="utf-8"?>
<!-- Generator: Adobe Illustrator 16.0.0, SVG Export Plug-In . SVG Version: 6.00 Build 0)  -->
<!DOCTYPE svg PUBLIC "-//W3C//DTD SVG 1.1//EN" "http://www.w3.org/Graphics/SVG/1.1/DTD/svg11.dtd">
<svg version="1.1" xmlns="http://www.w3.org/2000/svg" xmlns:xlink="http://www.w3.org/1999/xlink" x="0px" y="0px"
	 width="23.152px" height="23.014px" viewBox="0 0 23.152 23.014" enable-background="new 0 0 23.152 23.014" xml:space="preserve">
<g id="Calque_3" display="none">
	<rect x="1.076" y="1.007" display="inline" fill="#3D3D3D" width="21" height="21"/>
</g>
<g id="Calque_1" display="none">
	<g display="inline">
		<g display="none">
			<path display="inline" fill-rule="evenodd" clip-rule="evenodd" fill="#666666" d="M-25.614,54.98
				c4.253-2.456,8.498-4.928,12.772-7.347c0.437-0.247,1.059-0.219,1.596-0.222c3.691-0.018,7.383-0.002,11.074-0.011
				c6.184-0.015,10.23-3.065,11.624-9.104c1.148-4.965,1.137-10.004-0.172-14.957c-1.369-5.176-4.883-8.01-10.234-8.215
				c-3.937-0.151-7.881-0.047-11.821-0.091c-0.577-0.006-1.233-0.059-1.717-0.332c-4.288-2.424-8.544-4.902-13.116-7.542
				c0.724-0.056,1.128-0.116,1.533-0.116c8.032-0.004,16.063-0.023,24.095,0c12.727,0.038,21.729,8.899,22.093,21.651
				c0.14,4.915,0.017,9.779-2.121,14.344c-3.57,7.627-9.742,11.752-17.979,12.108c-9.161,0.394-18.351,0.09-27.526,0.09
				C-25.547,55.154-25.581,55.068-25.614,54.98z"/>
			<path display="inline" fill-rule="evenodd" clip-rule="evenodd" fill="#666666" d="M-25.848,15.113
				c9.327,5.387,18.498,10.685,27.839,16.08c-9.288,5.366-18.473,10.673-27.839,16.085C-25.848,36.502-25.848,25.928-25.848,15.113z
				"/>
		</g>
		<path display="none" fill-rule="evenodd" clip-rule="evenodd" fill="#666666" d="M-4.846,49.344c0-1.441,0-2.732,0-4.022
			c0-3.997-0.007-7.995,0.011-11.992c0.002-0.458-0.131-0.589-0.581-0.586c-2.429,0.019-4.858,0.013-7.288,0.002
			c-0.191,0-0.383-0.101-0.574-0.154c0.069-0.151,0.126-0.311,0.208-0.454c0.397-0.694,0.79-1.398,1.206-2.082
			c0.594-0.978,1.22-1.936,1.807-2.917c0.49-0.819,0.935-1.667,1.417-2.491c0.247-0.42,0.55-0.808,0.798-1.227
			c0.367-0.622,0.685-1.272,1.064-1.886c0.579-0.937,1.208-1.843,1.783-2.782c0.432-0.706,0.806-1.446,1.218-2.164
			c0.151-0.263,0.345-0.501,0.51-0.757c0.414-0.643,0.832-1.283,1.228-1.937c0.13-0.214,0.179-0.477,0.3-0.697
			c0.071-0.128,0.215-0.215,0.427-0.417c0,5.624,0,11.096,0,16.63c0.308,0.021,0.574,0.055,0.841,0.056
			c2.412,0.003,4.824-0.001,7.236,0.002c0.127,0.001,0.354,0.035,0.361,0.084c0.024,0.135-0.01,0.305-0.08,0.427
			c-0.5,0.863-1.009,1.728-1.527,2.58c-0.139,0.228-0.344,0.415-0.479,0.644C4.51,34.093,4.009,35,3.472,35.886
			c-0.586,0.969-1.215,1.913-1.801,2.883c-0.527,0.875-1.012,1.776-1.531,2.656c-0.572,0.972-1.156,1.937-1.746,2.898
			c-0.472,0.771-0.972,1.524-1.437,2.301c-0.445,0.743-0.852,1.51-1.295,2.255C-4.425,49.027-4.599,49.124-4.846,49.344z
			 M-5.097,32.648c0-0.01,0-0.019,0-0.028c-2.172,0-4.344,0-6.516,0c0,0.01,0,0.019,0,0.028C-9.44,32.648-7.269,32.648-5.097,32.648
			z"/>
		<path display="none" fill-rule="evenodd" clip-rule="evenodd" fill="#666666" d="M-1.064,52.612c-2.963,0-5.926-0.002-8.889,0
			c-1.578,0.002-2.911-0.573-4.022-1.683c-0.522-0.521-1.095-1.003-1.549-1.577c-0.523-0.662-0.953-1.399-1.401-2.119
			c-1.566-2.512-3.126-5.026-4.68-7.547c-1.176-1.908-2.413-3.784-3.484-5.751c-1.053-1.933-0.854-3.929,0.231-5.813
			c2.334-4.053,4.686-8.095,7.049-12.13c0.726-1.239,1.455-2.484,2.292-3.647c0.896-1.244,2.211-1.898,3.736-1.938
			c2.686-0.07,5.374-0.042,8.061-0.066c3.201-0.028,6.402-0.051,9.604-0.107c2.137-0.038,3.791,0.764,5.273,2.349
			c1.609,1.72,2.554,3.802,3.722,5.764c1.944,3.268,3.825,6.574,5.716,9.874c0.473,0.824,0.996,1.645,1.301,2.533
			c0.619,1.813,0.322,3.521-0.71,5.18c-2.667,4.283-5.249,8.619-7.888,12.921c-0.488,0.797-1.012,1.594-1.641,2.279
			c-0.91,0.995-2.135,1.468-3.471,1.484c-3.083,0.037-6.167,0.012-9.25,0.012C-1.064,52.623-1.064,52.617-1.064,52.612z
			 M-4.807,49.326c0.247-0.221,0.42-0.317,0.508-0.465c0.443-0.745,0.85-1.512,1.295-2.255c0.464-0.776,0.965-1.53,1.438-2.301
			c0.59-0.962,1.174-1.927,1.746-2.898c0.52-0.88,1.004-1.781,1.531-2.656c0.586-0.97,1.215-1.914,1.801-2.883
			c0.537-0.886,1.038-1.793,1.567-2.684c0.136-0.229,0.341-0.416,0.479-0.644c0.519-0.852,1.027-1.71,1.527-2.573
			c0.07-0.122,0.104-0.292,0.08-0.427c-0.008-0.049-0.234-0.083-0.361-0.084c-2.412-0.003-4.824,0.001-7.236-0.002
			c-0.267-0.001-0.533-0.034-0.841-0.056c0-5.534,0-11.006,0-16.63c-0.212,0.202-0.355,0.289-0.427,0.417
			C-1.821,13.406-1.87,13.668-2,13.883c-0.396,0.654-0.814,1.294-1.228,1.937c-0.165,0.256-0.358,0.494-0.51,0.757
			c-0.412,0.718-0.786,1.458-1.218,2.164c-0.575,0.939-1.205,1.845-1.783,2.782c-0.379,0.614-0.697,1.265-1.064,1.886
			c-0.248,0.419-0.551,0.807-0.798,1.227c-0.483,0.824-0.927,1.671-1.417,2.491c-0.587,0.981-1.213,1.939-1.807,2.917
			c-0.416,0.684-0.809,1.381-1.206,2.075c-0.083,0.144-0.14,0.303-0.208,0.454c0.191,0.054,0.383,0.154,0.574,0.154
			c2.429,0.011,4.859,0.017,7.288-0.002c0.45-0.003,0.583,0.128,0.581,0.586c-0.018,3.997-0.011,7.995-0.011,11.992
			C-4.807,46.593-4.807,47.884-4.807,49.326z M-2.961,51.213c0-0.006,0-0.011,0-0.016c-2.968,0-5.935,0-8.902,0
			c0,0.005,0,0.01,0,0.016C-8.896,51.213-5.929,51.213-2.961,51.213z"/>
		<path fill-rule="evenodd" clip-rule="evenodd" fill="#666666" d="M-1.064,52.612c-2.963,0-5.926-0.002-8.889,0
			c-1.578,0.002-2.911-0.573-4.022-1.683c-0.522-0.521-1.095-1.003-1.549-1.577c-0.523-0.662-0.953-1.399-1.401-2.119
			c-1.566-2.512-3.126-5.026-4.68-7.547c-1.176-1.908-2.413-3.784-3.484-5.751c-1.053-1.933-0.854-3.929,0.231-5.813
			c2.334-4.053,4.686-8.095,7.049-12.13c0.726-1.239,1.455-2.484,2.292-3.647c0.896-1.244,2.211-1.898,3.736-1.938
			c2.686-0.07,5.374-0.042,8.061-0.066c3.201-0.028,6.402-0.051,9.604-0.107c2.137-0.038,3.791,0.764,5.273,2.349
			c1.609,1.72,2.554,3.802,3.722,5.764c1.944,3.268,3.825,6.574,5.716,9.874c0.473,0.824,0.996,1.645,1.301,2.533
			c0.619,1.813,0.322,3.521-0.71,5.18c-2.667,4.283-5.249,8.619-7.888,12.921c-0.488,0.797-1.012,1.594-1.641,2.279
			c-0.91,0.995-2.135,1.468-3.471,1.484c-3.083,0.037-6.167,0.012-9.25,0.012C-1.064,52.623-1.064,52.617-1.064,52.612z
			 M-4.807,49.326c0.247-0.221,0.42-0.317,0.508-0.465c0.443-0.745,0.85-1.512,1.295-2.255c0.464-0.776,0.965-1.53,1.438-2.301
			c0.59-0.962,1.174-1.927,1.746-2.898c0.52-0.88,1.004-1.781,1.531-2.656c0.586-0.97,1.215-1.914,1.801-2.883
			c0.537-0.886,1.038-1.793,1.567-2.684c0.136-0.229,0.341-0.416,0.479-0.644c0.519-0.852,1.027-1.71,1.527-2.573
			c0.07-0.122,0.104-0.292,0.08-0.427c-0.008-0.049-0.234-0.083-0.361-0.084c-2.412-0.003-4.824,0.001-7.236-0.002
			c-0.267-0.001-0.533-0.034-0.841-0.056c0-5.534,0-11.006,0-16.63c-0.212,0.202-0.355,0.289-0.427,0.417
			C-1.821,13.406-1.87,13.668-2,13.883c-0.396,0.654-0.814,1.294-1.228,1.937c-0.165,0.256-0.358,0.494-0.51,0.757
			c-0.412,0.718-0.786,1.458-1.218,2.164c-0.575,0.939-1.205,1.845-1.783,2.782c-0.379,0.614-0.697,1.265-1.064,1.886
			c-0.248,0.419-0.551,0.807-0.798,1.227c-0.483,0.824-0.927,1.671-1.417,2.491c-0.587,0.981-1.213,1.939-1.807,2.917
			c-0.416,0.684-0.809,1.381-1.206,2.075c-0.083,0.144-0.14,0.303-0.208,0.454c0.191,0.054,0.383,0.154,0.574,0.154
			c2.429,0.011,4.859,0.017,7.288-0.002c0.45-0.003,0.583,0.128,0.581,0.586c-0.018,3.997-0.011,7.995-0.011,11.992
			C-4.807,46.593-4.807,47.884-4.807,49.326z M-2.961,51.213c0-0.006,0-0.011,0-0.016c-2.968,0-5.935,0-8.902,0
			c0,0.005,0,0.01,0,0.016C-8.896,51.213-5.929,51.213-2.961,51.213z"/>
	</g>
	<g display="inline">
		<g display="none">
			<path display="inline" fill-rule="evenodd" clip-rule="evenodd" d="M-25.614,54.98c4.253-2.456,8.498-4.928,12.772-7.347
				c0.437-0.247,1.059-0.219,1.596-0.222c3.691-0.018,7.383-0.002,11.074-0.011c6.184-0.015,10.23-3.065,11.624-9.104
				c1.148-4.965,1.137-10.004-0.172-14.957c-1.369-5.176-4.883-8.01-10.234-8.215c-3.937-0.151-7.881-0.047-11.821-0.091
				c-0.577-0.006-1.233-0.059-1.717-0.332c-4.288-2.424-8.544-4.902-13.116-7.542c0.724-0.056,1.128-0.116,1.533-0.116
				c8.032-0.004,16.063-0.023,24.095,0c12.727,0.038,21.729,8.899,22.093,21.651c0.14,4.915,0.017,9.779-2.121,14.344
				c-3.57,7.627-9.742,11.752-17.979,12.108c-9.161,0.394-18.351,0.09-27.526,0.09C-25.547,55.154-25.581,55.068-25.614,54.98z"/>
			<path display="inline" fill-rule="evenodd" clip-rule="evenodd" fill="#FF0000" d="M-25.848,15.113
				c9.327,5.387,18.498,10.685,27.839,16.08c-9.288,5.366-18.473,10.673-27.839,16.085C-25.848,36.502-25.848,25.928-25.848,15.113z
				"/>
		</g>
		<path display="none" fill-rule="evenodd" clip-rule="evenodd" fill="#6DEBFF" d="M-4.846,49.344c0-1.441,0-2.732,0-4.022
			c0-3.997-0.007-7.995,0.011-11.992c0.002-0.458-0.131-0.589-0.581-0.586c-2.429,0.019-4.858,0.013-7.288,0.002
			c-0.191,0-0.383-0.101-0.574-0.154c0.069-0.151,0.126-0.311,0.208-0.454c0.397-0.694,0.79-1.398,1.206-2.082
			c0.594-0.978,1.22-1.936,1.807-2.917c0.49-0.819,0.935-1.667,1.417-2.491c0.247-0.42,0.55-0.808,0.798-1.227
			c0.367-0.622,0.685-1.272,1.064-1.886c0.579-0.937,1.208-1.843,1.783-2.782c0.432-0.706,0.806-1.446,1.218-2.164
			c0.151-0.263,0.345-0.501,0.51-0.757c0.414-0.643,0.832-1.283,1.228-1.937c0.13-0.214,0.179-0.477,0.3-0.697
			c0.071-0.128,0.215-0.215,0.427-0.417c0,5.624,0,11.096,0,16.63c0.308,0.021,0.574,0.055,0.841,0.056
			c2.412,0.003,4.824-0.001,7.236,0.002c0.127,0.001,0.354,0.035,0.361,0.084c0.024,0.135-0.01,0.305-0.08,0.427
			c-0.5,0.863-1.009,1.728-1.527,2.58c-0.139,0.228-0.344,0.415-0.479,0.644C4.51,34.093,4.009,35,3.472,35.886
			c-0.586,0.969-1.215,1.913-1.801,2.883c-0.527,0.875-1.012,1.776-1.531,2.656c-0.572,0.972-1.156,1.937-1.746,2.898
			c-0.472,0.771-0.972,1.524-1.437,2.301c-0.445,0.743-0.852,1.51-1.295,2.255C-4.425,49.027-4.599,49.124-4.846,49.344z
			 M-5.097,32.648c0-0.01,0-0.019,0-0.028c-2.172,0-4.344,0-6.516,0c0,0.01,0,0.019,0,0.028C-9.44,32.648-7.269,32.648-5.097,32.648
			z"/>
		<path display="none" fill-rule="evenodd" clip-rule="evenodd" fill="#666666" d="M-1.064,52.612c-2.963,0-5.926-0.002-8.889,0
			c-1.578,0.002-2.911-0.573-4.022-1.683c-0.522-0.521-1.095-1.003-1.549-1.577c-0.523-0.662-0.953-1.399-1.401-2.119
			c-1.566-2.512-3.126-5.026-4.68-7.547c-1.176-1.908-2.413-3.784-3.484-5.751c-1.053-1.933-0.854-3.929,0.231-5.813
			c2.334-4.053,4.686-8.095,7.049-12.13c0.726-1.239,1.455-2.484,2.292-3.647c0.896-1.244,2.211-1.898,3.736-1.938
			c2.686-0.07,5.374-0.042,8.061-0.066c3.201-0.028,6.402-0.051,9.604-0.107c2.137-0.038,3.791,0.764,5.273,2.349
			c1.609,1.72,2.554,3.802,3.722,5.764c1.944,3.268,3.825,6.574,5.716,9.874c0.473,0.824,0.996,1.645,1.301,2.533
			c0.619,1.813,0.322,3.521-0.71,5.18c-2.667,4.283-5.249,8.619-7.888,12.921c-0.488,0.797-1.012,1.594-1.641,2.279
			c-0.91,0.995-2.135,1.468-3.471,1.484c-3.083,0.037-6.167,0.012-9.25,0.012C-1.064,52.623-1.064,52.617-1.064,52.612z
			 M-4.807,49.326c0.247-0.221,0.42-0.317,0.508-0.465c0.443-0.745,0.85-1.512,1.295-2.255c0.464-0.776,0.965-1.53,1.438-2.301
			c0.59-0.962,1.174-1.927,1.746-2.898c0.52-0.88,1.004-1.781,1.531-2.656c0.586-0.97,1.215-1.914,1.801-2.883
			c0.537-0.886,1.038-1.793,1.567-2.684c0.136-0.229,0.341-0.416,0.479-0.644c0.519-0.852,1.027-1.71,1.527-2.573
			c0.07-0.122,0.104-0.292,0.08-0.427c-0.008-0.049-0.234-0.083-0.361-0.084c-2.412-0.003-4.824,0.001-7.236-0.002
			c-0.267-0.001-0.533-0.034-0.841-0.056c0-5.534,0-11.006,0-16.63c-0.212,0.202-0.355,0.289-0.427,0.417
			C-1.821,13.406-1.87,13.668-2,13.883c-0.396,0.654-0.814,1.294-1.228,1.937c-0.165,0.256-0.358,0.494-0.51,0.757
			c-0.412,0.718-0.786,1.458-1.218,2.164c-0.575,0.939-1.205,1.845-1.783,2.782c-0.379,0.614-0.697,1.265-1.064,1.886
			c-0.248,0.419-0.551,0.807-0.798,1.227c-0.483,0.824-0.927,1.671-1.417,2.491c-0.587,0.981-1.213,1.939-1.807,2.917
			c-0.416,0.684-0.809,1.381-1.206,2.075c-0.083,0.144-0.14,0.303-0.208,0.454c0.191,0.054,0.383,0.154,0.574,0.154
			c2.429,0.011,4.859,0.017,7.288-0.002c0.45-0.003,0.583,0.128,0.581,0.586c-0.018,3.997-0.011,7.995-0.011,11.992
			C-4.807,46.593-4.807,47.884-4.807,49.326z M-2.961,51.213c0-0.006,0-0.011,0-0.016c-2.968,0-5.935,0-8.902,0
			c0,0.005,0,0.01,0,0.016C-8.896,51.213-5.929,51.213-2.961,51.213z"/>
		<path fill-rule="evenodd" clip-rule="evenodd" d="M-1.064,52.612c-2.963,0-5.926-0.002-8.889,0
			c-1.578,0.002-2.911-0.573-4.022-1.683c-0.522-0.521-1.095-1.003-1.549-1.577c-0.523-0.662-0.953-1.399-1.401-2.119
			c-1.566-2.512-3.126-5.026-4.68-7.547c-1.176-1.908-2.413-3.784-3.484-5.751c-1.053-1.933-0.854-3.929,0.231-5.813
			c2.334-4.053,4.686-8.095,7.049-12.13c0.726-1.239,1.455-2.484,2.292-3.647c0.896-1.244,2.211-1.898,3.736-1.938
			c2.686-0.07,5.374-0.042,8.061-0.066c3.201-0.028,6.402-0.051,9.604-0.107c2.137-0.038,3.791,0.764,5.273,2.349
			c1.609,1.72,2.554,3.802,3.722,5.764c1.944,3.268,3.825,6.574,5.716,9.874c0.473,0.824,0.996,1.645,1.301,2.533
			c0.619,1.813,0.322,3.521-0.71,5.18c-2.667,4.283-5.249,8.619-7.888,12.921c-0.488,0.797-1.012,1.594-1.641,2.279
			c-0.91,0.995-2.135,1.468-3.471,1.484c-3.083,0.037-6.167,0.012-9.25,0.012C-1.064,52.623-1.064,52.617-1.064,52.612z
			 M-4.807,49.326c0.247-0.221,0.42-0.317,0.508-0.465c0.443-0.745,0.85-1.512,1.295-2.255c0.464-0.776,0.965-1.53,1.438-2.301
			c0.59-0.962,1.174-1.927,1.746-2.898c0.52-0.88,1.004-1.781,1.531-2.656c0.586-0.97,1.215-1.914,1.801-2.883
			c0.537-0.886,1.038-1.793,1.567-2.684c0.136-0.229,0.341-0.416,0.479-0.644c0.519-0.852,1.027-1.71,1.527-2.573
			c0.07-0.122,0.104-0.292,0.08-0.427c-0.008-0.049-0.234-0.083-0.361-0.084c-2.412-0.003-4.824,0.001-7.236-0.002
			c-0.267-0.001-0.533-0.034-0.841-0.056c0-5.534,0-11.006,0-16.63c-0.212,0.202-0.355,0.289-0.427,0.417
			C-1.821,13.406-1.87,13.668-2,13.883c-0.396,0.654-0.814,1.294-1.228,1.937c-0.165,0.256-0.358,0.494-0.51,0.757
			c-0.412,0.718-0.786,1.458-1.218,2.164c-0.575,0.939-1.205,1.845-1.783,2.782c-0.379,0.614-0.697,1.265-1.064,1.886
			c-0.248,0.419-0.551,0.807-0.798,1.227c-0.483,0.824-0.927,1.671-1.417,2.491c-0.587,0.981-1.213,1.939-1.807,2.917
			c-0.416,0.684-0.809,1.381-1.206,2.075c-0.083,0.144-0.14,0.303-0.208,0.454c0.191,0.054,0.383,0.154,0.574,0.154
			c2.429,0.011,4.859,0.017,7.288-0.002c0.45-0.003,0.583,0.128,0.581,0.586c-0.018,3.997-0.011,7.995-0.011,11.992
			C-4.807,46.593-4.807,47.884-4.807,49.326z M-2.961,51.213c0-0.006,0-0.011,0-0.016c-2.968,0-5.935,0-8.902,0
			c0,0.005,0,0.01,0,0.016C-8.896,51.213-5.929,51.213-2.961,51.213z"/>
	</g>
</g>
<g id="Calque_2">
	<g>
		<path fill-rule="evenodd" clip-rule="evenodd" fill="#6DEBFF" d="M10.203,21.711c0-0.849,0-1.608,0-2.366
			c0-2.349-0.005-4.704,0.007-7.054c0.002-0.268-0.079-0.344-0.359-0.344c-1.5,0.012-3.102-0.009-4.601-0.018
			c-0.293-0.023-0.158-0.316-0.119-0.391c0.135-0.233,0.368-0.592,0.422-0.677c0.244-0.408,6.705-10.538,6.832-10.656
			c0,3.307,0,6.3,0,9.554c0.01,0.298,0.191,0.259,0.355,0.259c1.493,0.001,3.147,0,4.639,0.001c0.078,0,0.217,0.02,0.224,0.048
			c0.017,0.08-0.009,0.181-0.049,0.25C17.242,10.829,10.355,21.579,10.203,21.711z"/>
	</g>
	<g>
		<path fill-rule="evenodd" clip-rule="evenodd" d="M10.203,21.711c0-0.849,0-1.608,0-2.366
			c0-2.349-0.005-4.704,0.007-7.054c0.002-0.268-0.079-0.344-0.359-0.344c-1.5,0.012-3.102-0.009-4.601-0.018
			c-0.293-0.023-0.158-0.316-0.119-0.391c0.135-0.233,0.368-0.592,0.422-0.677c0.244-0.408,6.705-10.538,6.832-10.656
			c0,3.307,0,6.3,0,9.554c0.01,0.298,0.191,0.259,0.355,0.259c1.493,0.001,3.147,0,4.639,0.001c0.078,0,0.217,0.02,0.224,0.048
			c0.017,0.08-0.009,0.181-0.049,0.25C17.242,10.829,10.355,21.579,10.203,21.711z"/>
	</g>
</g>
<g id="steemit" display="none">
	<g display="inline">
		<path fill-rule="evenodd" clip-rule="evenodd" d="M3.157,19.334c0.21-0.102,0.395-0.188,0.574-0.281
			c0.655-0.344,1.25-0.766,1.715-1.345c0.213-0.263,0.379-0.553,0.492-0.872c0.033-0.093,0.018-0.14-0.071-0.19
			c-0.876-0.499-1.649-1.12-2.309-1.874C2.621,13.7,1.99,12.478,1.743,11.084C1.407,9.186,1.771,7.41,2.813,5.777
			c1.009-1.581,2.432-2.691,4.172-3.425c1.006-0.424,2.058-0.671,3.149-0.761c0.822-0.067,1.646-0.046,2.471,0.001
			c0.599,0.034,1.198,0.088,1.791,0.167c1.335,0.174,2.61,0.559,3.84,1.091c0.169,0.073,0.336,0.15,0.502,0.225
			c0.012,0.004,0.021,0.013,0.043,0.029c-0.043,0.02-0.08,0.034-0.117,0.052c-0.335,0.171-0.687,0.321-1.005,0.52
			c-0.719,0.446-1.065,1.105-1.087,1.933c-0.002,0.073,0.011,0.151-0.012,0.217c-0.04,0.128,0.022,0.174,0.126,0.224
			c1.402,0.681,2.57,1.629,3.463,2.892c0.709,1.004,1.17,2.109,1.32,3.325c0.314,2.576-0.556,4.746-2.422,6.546
			c-1.313,1.268-2.909,2.042-4.705,2.426c-0.956,0.205-1.924,0.261-2.902,0.212c-2.544-0.125-4.969-0.739-7.311-1.695
			C3.811,19.625,3.498,19.481,3.157,19.334z M6.509,19.021c0.054,0.02,0.089,0.037,0.124,0.045c0.65,0.159,1.296,0.337,1.951,0.472
			c0.964,0.198,1.943,0.307,2.927,0.361c0.757,0.041,1.514,0.063,2.264-0.079c1.624-0.305,3.074-0.967,4.252-2.112
			c1.835-1.784,2.415-3.908,1.561-6.317c-0.979-2.774-3.916-4.498-6.997-4.012C10.635,7.688,9.128,8.69,8.102,10.35
			c-0.706,1.139-0.963,2.387-0.834,3.71c0.074,0.75,0.314,1.454,0.659,2.124c0.077,0.149,0.104,0.293,0.086,0.454
			c-0.01,0.08-0.017,0.161-0.033,0.239c-0.171,0.766-0.575,1.395-1.176,1.907C6.714,18.862,6.618,18.934,6.509,19.021z"/>
		<path fill-rule="evenodd" clip-rule="evenodd" d="M14.599,13.803c0-0.226,0.002-0.453-0.002-0.678
			c-0.002-0.086,0.028-0.142,0.117-0.157c0.159-0.027,0.316-0.06,0.476-0.081c0.141-0.018,0.272,0.026,0.378,0.122
			c0.056,0.048,0.098,0.04,0.155,0.007c0.173-0.101,0.355-0.162,0.562-0.111c0.236,0.06,0.407,0.261,0.411,0.5
			c0.003,0.365,0.005,0.73,0.002,1.094c-0.002,0.042-0.043,0.083-0.065,0.125c-0.023-0.041-0.07-0.082-0.07-0.124
			c-0.007-0.353-0.006-0.707-0.007-1.06c0-0.296-0.237-0.482-0.534-0.419c-0.023,0.006-0.046,0.011-0.07,0.018
			c-0.222,0.065-0.232,0.083-0.232,0.31c0.001,0.378,0.001,0.752,0.001,1.129c0,0.048,0.028,0.12-0.063,0.121
			c-0.087,0.001-0.07-0.067-0.07-0.118c-0.002-0.353-0.015-0.707,0.004-1.059c0.015-0.313-0.228-0.43-0.452-0.417
			c-0.105,0.007-0.207,0.037-0.311,0.056c-0.076,0.015-0.097,0.06-0.097,0.132c0.006,0.403,0.006,0.806,0.007,1.209
			c0,0.034,0.01,0.072-0.001,0.103c-0.014,0.036-0.045,0.065-0.067,0.097c-0.023-0.032-0.068-0.063-0.068-0.095
			c-0.007-0.196-0.004-0.391-0.004-0.588c0-0.038,0-0.077,0-0.116H14.599z"/>
		<path fill-rule="evenodd" clip-rule="evenodd" d="M8.518,14.63c-0.137-0.04-0.277-0.074-0.413-0.12
			c-0.029-0.01-0.042-0.065-0.063-0.1c0.038-0.005,0.08-0.023,0.113-0.012c0.167,0.057,0.334,0.112,0.515,0.083
			c0.142-0.026,0.226-0.1,0.254-0.224c0.031-0.143-0.007-0.249-0.135-0.326c-0.086-0.053-0.182-0.091-0.273-0.133
			c-0.056-0.026-0.114-0.048-0.172-0.075c-0.248-0.12-0.333-0.264-0.289-0.479c0.047-0.227,0.192-0.35,0.467-0.35
			c0.149,0.001,0.299,0.046,0.448,0.079c0.024,0.005,0.039,0.052,0.058,0.078c-0.032,0.011-0.065,0.032-0.095,0.028
			c-0.146-0.019-0.292-0.058-0.438-0.066c-0.157-0.008-0.254,0.073-0.287,0.204c-0.037,0.14,0.007,0.252,0.143,0.331
			c0.074,0.043,0.156,0.072,0.235,0.106c0.073,0.034,0.151,0.062,0.224,0.1c0.222,0.121,0.296,0.278,0.242,0.505
			c-0.046,0.199-0.218,0.333-0.444,0.347c-0.027,0.002-0.055,0-0.082,0C8.522,14.613,8.521,14.623,8.518,14.63z"/>
		<path fill-rule="evenodd" clip-rule="evenodd" d="M18.925,14.464c0.056,0.023,0.161,0.059,0.159,0.067
			c-0.026,0.099-0.113,0.042-0.175,0.049c-0.048,0.006-0.1-0.006-0.149-0.016c-0.254-0.044-0.326-0.127-0.328-0.38
			c0-0.62,0-1.243,0-1.864c0-0.02-0.005-0.042,0.004-0.057c0.013-0.027,0.037-0.047,0.058-0.071
			c0.019,0.024,0.054,0.046,0.056,0.071c0.005,0.125,0.004,0.254,0.004,0.38c0.001,0.287,0.001,0.287,0.3,0.284
			c0.044,0,0.089-0.007,0.129,0.001c0.039,0.008,0.074,0.033,0.109,0.05c-0.037,0.02-0.074,0.053-0.114,0.057
			c-0.105,0.01-0.211,0.009-0.318,0.008c-0.072-0.001-0.104,0.028-0.104,0.102c0.002,0.346-0.005,0.691-0.003,1.037
			C18.553,14.395,18.661,14.481,18.925,14.464z"/>
		<path fill-rule="evenodd" clip-rule="evenodd" d="M13.817,14.41c0.022,0.027,0.037,0.073-0.039,0.103
			c-0.238,0.096-0.483,0.136-0.733,0.044c-0.22-0.081-0.337-0.244-0.341-0.475c-0.001-0.203,0.012-0.407-0.001-0.61
			c-0.034-0.499,0.414-0.626,0.74-0.552c0.308,0.07,0.457,0.261,0.459,0.564c0.002,0.31,0.032,0.292-0.298,0.292
			c-0.215,0.002-0.43,0.006-0.646,0.006c-0.077,0-0.116,0.023-0.111,0.107c0.008,0.067,0.002,0.137,0.002,0.207
			c0.002,0.241,0.143,0.402,0.39,0.397C13.421,14.491,13.604,14.442,13.817,14.41z M13.747,13.646
			c0.017-0.216,0.029-0.422-0.178-0.556c-0.146-0.095-0.415-0.085-0.56,0.019c-0.192,0.137-0.168,0.334-0.153,0.537
			C13.154,13.646,13.443,13.646,13.747,13.646z"/>
		<path fill-rule="evenodd" clip-rule="evenodd" d="M10.885,13.725c0-0.104-0.002-0.208,0-0.312
			c0.007-0.336,0.273-0.57,0.616-0.519c0.137,0.021,0.274,0.083,0.396,0.153c0.126,0.074,0.192,0.197,0.18,0.353
			c-0.004,0.064,0.002,0.131,0.004,0.195c0.001,0.156-0.014,0.175-0.171,0.176c-0.252,0.002-0.502,0.007-0.754,0.003
			c-0.098-0.002-0.136,0.028-0.125,0.125c0.007,0.053,0.001,0.107,0.001,0.16c0.001,0.289,0.154,0.445,0.452,0.431
			c0.133-0.005,0.265-0.057,0.398-0.083c0.038-0.008,0.079,0.005,0.12,0.008c-0.028,0.034-0.047,0.088-0.082,0.102
			c-0.216,0.083-0.438,0.117-0.666,0.041c-0.237-0.078-0.365-0.246-0.37-0.488C10.883,13.955,10.885,13.839,10.885,13.725z
			 M11.485,13.645C11.485,13.645,11.485,13.645,11.485,13.645c0.075-0.001,0.148-0.001,0.223-0.001c0.252,0,0.252,0,0.23-0.246
			c-0.021-0.218-0.173-0.364-0.396-0.381c-0.246-0.02-0.448,0.095-0.496,0.294c-0.019,0.079-0.01,0.166-0.016,0.249
			c-0.005,0.067,0.028,0.087,0.091,0.086C11.243,13.644,11.364,13.645,11.485,13.645z"/>
		<path fill-rule="evenodd" clip-rule="evenodd" d="M9.868,13.058c-0.012,0.018-0.019,0.023-0.019,0.029
			c0.001,0.395,0,0.789,0.01,1.184c0.003,0.107,0.086,0.17,0.193,0.187c0.085,0.014,0.173,0.012,0.257,0.023
			c0.023,0.004,0.041,0.035,0.063,0.053c-0.021,0.019-0.044,0.055-0.061,0.054c-0.143-0.019-0.293-0.023-0.424-0.073
			c-0.071-0.028-0.125-0.13-0.16-0.209C9.7,14.242,9.705,14.162,9.705,14.09c0.001-0.587,0.003-1.173,0.007-1.76
			c0-0.016-0.005-0.034,0.002-0.045c0.019-0.031,0.042-0.06,0.064-0.089c0.02,0.032,0.056,0.063,0.058,0.093
			c0.007,0.164,0.011,0.331,0.003,0.495c-0.005,0.109,0.029,0.154,0.146,0.145c0.089-0.008,0.182-0.007,0.271,0.002
			c0.04,0.005,0.104,0.035,0.109,0.062c0.014,0.076-0.056,0.063-0.104,0.063C10.127,13.058,9.993,13.058,9.868,13.058z"/>
		<path fill-rule="evenodd" clip-rule="evenodd" d="M17.477,13.754c0-0.249,0-0.499,0-0.749
			c0-0.051-0.004-0.103,0.074-0.104c0.079-0.001,0.081,0.05,0.081,0.109c0,0.499,0,0.998,0,1.497c0,0.061-0.006,0.113-0.079,0.113
			c-0.082,0-0.076-0.062-0.076-0.117C17.477,14.254,17.477,14.004,17.477,13.754z"/>
		<path fill-rule="evenodd" clip-rule="evenodd" d="M17.553,12.439c-0.049-0.069-0.097-0.109-0.095-0.146
			c0.002-0.033,0.066-0.094,0.091-0.088c0.039,0.009,0.089,0.057,0.098,0.096C17.654,12.33,17.601,12.372,17.553,12.439z"/>
	</g>
</g>
</svg>
