<?xml version="1.0" encoding="utf-8"?>
<!-- Generator: Adobe Illustrator 16.0.0, SVG Export Plug-In . SVG Version: 6.00 Build 0)  -->
<!DOCTYPE svg PUBLIC "-//W3C//DTD SVG 1.1//EN" "http://www.w3.org/Graphics/SVG/1.1/DTD/svg11.dtd">
<svg version="1.1" xmlns="http://www.w3.org/2000/svg" xmlns:xlink="http://www.w3.org/1999/xlink" x="0px" y="0px"
	 width="16.919px" height="17.281px" viewBox="0 0 16.919 17.281" enable-background="new 0 0 16.919 17.281" xml:space="preserve">
<g id="Calque_3" display="none">
	<rect x="1.885" display="inline" width="15.034" height="17.281"/>
</g>
<g id="busy" display="none">
	<g display="inline">
		<g display="none">
			<path display="inline" fill-rule="evenodd" clip-rule="evenodd" d="M-0.993,17.956
				c1.593-0.92,3.182-1.846,4.783-2.751c0.164-0.093,0.396-0.082,0.598-0.083c1.383-0.007,2.765-0.001,4.147-0.004
				c2.315-0.006,3.831-1.148,4.353-3.41c0.431-1.858,0.426-3.746-0.063-5.601c-0.513-1.938-1.829-3-3.833-3.076
				C7.517,2.974,6.04,3.012,4.563,2.996C4.348,2.994,4.103,2.974,3.921,2.872C2.315,1.964,0.722,1.036-0.991,0.047
				c0.271-0.021,0.423-0.043,0.574-0.043c3.008-0.001,6.016-0.008,9.024,0c4.766,0.014,8.138,3.333,8.273,8.108
				c0.052,1.841,0.006,3.662-0.795,5.372c-1.337,2.856-3.648,4.401-6.732,4.534c-3.431,0.147-6.872,0.034-10.31,0.034
				C-0.968,18.021-0.98,17.989-0.993,17.956z"/>
			<path display="inline" fill-rule="evenodd" clip-rule="evenodd" d="M-1.081,3.025
				C2.412,5.043,5.847,7.027,9.345,9.047c-3.479,2.01-6.918,3.997-10.426,6.023C-1.081,11.036-1.081,7.076-1.081,3.025z"/>
		</g>
		<path display="none" fill-rule="evenodd" clip-rule="evenodd" d="M6.784,15.845c0-0.54,0-1.023,0-1.507
			c0-1.497-0.002-2.994,0.004-4.491c0.002-0.171-0.049-0.22-0.217-0.219c-0.91,0.007-1.82,0.005-2.729,0
			c-0.071,0-0.144-0.037-0.215-0.058c0.025-0.057,0.047-0.116,0.077-0.17c0.149-0.26,0.297-0.523,0.452-0.779
			c0.223-0.366,0.457-0.725,0.677-1.093c0.184-0.307,0.35-0.624,0.531-0.933c0.092-0.157,0.205-0.302,0.299-0.459
			C5.8,5.904,5.919,5.66,6.062,5.43C6.278,5.08,6.514,4.74,6.729,4.389C6.891,4.125,7.03,3.847,7.185,3.578
			C7.241,3.48,7.313,3.391,7.376,3.295C7.53,3.054,7.687,2.814,7.835,2.569c0.049-0.081,0.067-0.179,0.113-0.261
			c0.026-0.048,0.08-0.081,0.159-0.156c0,2.106,0,4.155,0,6.228C8.223,8.388,8.323,8.4,8.423,8.401c0.903,0.001,1.807,0,2.71,0.001
			c0.048,0,0.132,0.013,0.135,0.031c0.01,0.05-0.003,0.114-0.029,0.16c-0.188,0.323-0.378,0.647-0.572,0.966
			c-0.052,0.085-0.129,0.155-0.18,0.241c-0.198,0.333-0.386,0.673-0.587,1.005c-0.22,0.362-0.455,0.716-0.675,1.079
			c-0.197,0.328-0.379,0.666-0.573,0.995c-0.214,0.364-0.433,0.726-0.653,1.086c-0.177,0.288-0.364,0.57-0.538,0.861
			c-0.167,0.278-0.319,0.565-0.485,0.845C6.942,15.726,6.877,15.762,6.784,15.845z M6.69,9.592c0-0.004,0-0.007,0-0.011
			c-0.813,0-1.627,0-2.439,0c0,0.004,0,0.007,0,0.011C5.063,9.592,5.878,9.592,6.69,9.592z"/>
		<path display="none" fill-rule="evenodd" clip-rule="evenodd" d="M8.2,17.069c-1.109,0-2.219-0.001-3.328,0
			c-0.592,0.001-1.091-0.215-1.507-0.63c-0.195-0.195-0.41-0.376-0.58-0.591c-0.196-0.248-0.356-0.524-0.524-0.794
			c-0.586-0.94-1.171-1.882-1.753-2.826c-0.44-0.715-0.903-1.417-1.305-2.153C-1.19,9.35-1.116,8.603-0.71,7.897
			c0.873-1.518,1.754-3.031,2.64-4.542c0.271-0.464,0.544-0.93,0.858-1.366c0.336-0.465,0.828-0.711,1.398-0.726
			C5.192,1.237,6.2,1.247,7.206,1.238c1.198-0.011,2.397-0.019,3.597-0.04c0.8-0.014,1.42,0.286,1.975,0.879
			c0.603,0.644,0.956,1.424,1.394,2.159c0.729,1.224,1.433,2.462,2.141,3.698c0.177,0.309,0.373,0.616,0.487,0.949
			c0.231,0.68,0.121,1.319-0.266,1.939c-0.999,1.604-1.966,3.229-2.954,4.839c-0.183,0.299-0.379,0.598-0.614,0.854
			c-0.341,0.372-0.8,0.549-1.3,0.556c-1.155,0.014-2.31,0.004-3.465,0.004C8.2,17.073,8.2,17.071,8.2,17.069z M6.8,15.838
			c0.092-0.083,0.156-0.119,0.189-0.175c0.166-0.278,0.318-0.565,0.484-0.844c0.175-0.291,0.362-0.573,0.539-0.862
			c0.221-0.359,0.439-0.721,0.654-1.085c0.194-0.33,0.376-0.667,0.573-0.995c0.22-0.363,0.455-0.717,0.674-1.079
			c0.201-0.332,0.39-0.672,0.587-1.005c0.052-0.086,0.128-0.156,0.18-0.241c0.194-0.319,0.385-0.641,0.572-0.964
			c0.026-0.046,0.039-0.109,0.03-0.16c-0.003-0.019-0.088-0.031-0.136-0.032c-0.903-0.001-1.807,0-2.71,0
			c-0.1,0-0.199-0.013-0.314-0.021c0-2.073,0-4.122,0-6.228c-0.08,0.076-0.134,0.108-0.16,0.156
			C7.917,2.386,7.899,2.484,7.851,2.565C7.702,2.81,7.546,3.049,7.391,3.29C7.329,3.386,7.257,3.475,7.2,3.574
			C7.046,3.842,6.905,4.12,6.743,4.384C6.528,4.736,6.292,5.075,6.075,5.426c-0.142,0.23-0.261,0.474-0.398,0.707
			C5.585,6.289,5.471,6.434,5.378,6.592C5.198,6.9,5.031,7.218,4.848,7.524c-0.22,0.368-0.454,0.727-0.677,1.092
			C4.015,8.873,3.868,9.134,3.72,9.394c-0.031,0.054-0.053,0.113-0.078,0.17c0.071,0.021,0.143,0.058,0.215,0.058
			c0.91,0.004,1.82,0.007,2.729,0C6.755,9.62,6.804,9.669,6.804,9.84C6.796,11.337,6.8,12.834,6.8,14.332
			C6.8,14.815,6.8,15.298,6.8,15.838z M7.49,16.545c0-0.003,0-0.004,0-0.006c-1.111,0-2.223,0-3.334,0c0,0.002,0,0.003,0,0.006
			C5.268,16.545,6.379,16.545,7.49,16.545z"/>
		<path fill-rule="evenodd" clip-rule="evenodd" d="M9.181,14.099c-0.974,0-1.948,0-2.922,0
			c-0.52,0.001-0.957-0.188-1.323-0.553c-0.171-0.171-0.36-0.33-0.509-0.519c-0.173-0.218-0.313-0.46-0.46-0.697
			c-0.516-0.826-1.029-1.652-1.54-2.482C2.04,9.221,1.634,8.604,1.281,7.958C0.936,7.321,1,6.666,1.356,6.046
			c0.768-1.333,1.54-2.662,2.319-3.989c0.238-0.408,0.478-0.816,0.753-1.2C4.724,0.449,5.156,0.232,5.657,0.22
			c0.884-0.022,1.768-0.014,2.651-0.021c1.052-0.009,2.104-0.017,3.158-0.035c0.701-0.012,1.246,0.251,1.734,0.772
			c0.529,0.566,0.839,1.25,1.223,1.896c0.64,1.075,1.259,2.162,1.88,3.247c0.154,0.271,0.328,0.541,0.429,0.833
			c0.203,0.596,0.105,1.158-0.233,1.703c-0.878,1.41-1.727,2.835-2.595,4.249c-0.16,0.263-0.332,0.525-0.539,0.75
			c-0.3,0.327-0.702,0.482-1.141,0.488c-1.016,0.012-2.028,0.003-3.044,0.003C9.181,14.103,9.181,14.101,9.181,14.099z
			 M7.951,13.019c0.081-0.073,0.138-0.104,0.168-0.153c0.145-0.245,0.278-0.497,0.424-0.741c0.153-0.255,0.318-0.503,0.474-0.757
			c0.194-0.315,0.386-0.632,0.575-0.953c0.171-0.289,0.329-0.585,0.503-0.874c0.192-0.319,0.4-0.63,0.592-0.948
			c0.176-0.292,0.342-0.59,0.516-0.882c0.045-0.075,0.111-0.137,0.156-0.212c0.172-0.28,0.339-0.563,0.504-0.847
			c0.022-0.04,0.034-0.096,0.027-0.14c-0.003-0.016-0.078-0.028-0.12-0.028c-0.794,0-1.586,0-2.379,0
			c-0.089,0-0.176-0.011-0.277-0.018c0-1.82,0-3.619,0-5.469C9.044,1.063,8.996,1.092,8.973,1.134
			C8.932,1.207,8.916,1.293,8.875,1.363C8.743,1.579,8.607,1.789,8.471,2C8.417,2.084,8.353,2.163,8.304,2.25
			C8.168,2.485,8.044,2.729,7.902,2.96C7.714,3.27,7.506,3.567,7.315,3.876c-0.125,0.202-0.229,0.416-0.35,0.62
			C6.885,4.634,6.785,4.761,6.703,4.899c-0.157,0.271-0.305,0.55-0.465,0.819C6.045,6.041,5.839,6.356,5.644,6.677
			C5.506,6.903,5.377,7.132,5.247,7.36C5.22,7.407,5.201,7.46,5.178,7.509c0.063,0.018,0.126,0.051,0.189,0.051
			c0.799,0.003,1.599,0.005,2.396,0c0.149-0.002,0.192,0.042,0.192,0.192c-0.007,1.314-0.004,2.629-0.004,3.943
			C7.951,12.12,7.951,12.545,7.951,13.019z M8.558,13.64c0-0.002,0-0.003,0-0.005c-0.976,0-1.95,0-2.928,0c0,0.001,0,0.002,0,0.005
			C6.607,13.64,7.582,13.64,8.558,13.64z"/>
	</g>
	<g display="inline">
		<g display="none">
			<path display="inline" fill-rule="evenodd" clip-rule="evenodd" d="M-0.993,17.956c1.593-0.92,3.182-1.846,4.783-2.751
				c0.164-0.093,0.396-0.082,0.598-0.083c1.383-0.007,2.765-0.001,4.147-0.004c2.315-0.006,3.831-1.148,4.353-3.41
				c0.431-1.858,0.426-3.746-0.063-5.601c-0.513-1.938-1.829-3-3.833-3.076C7.517,2.974,6.04,3.012,4.563,2.996
				C4.348,2.994,4.103,2.974,3.921,2.872C2.315,1.964,0.722,1.036-0.991,0.047c0.271-0.021,0.423-0.043,0.574-0.043
				c3.008-0.001,6.016-0.008,9.024,0c4.766,0.014,8.138,3.333,8.273,8.108c0.052,1.841,0.006,3.662-0.795,5.372
				c-1.337,2.856-3.648,4.401-6.732,4.534c-3.431,0.147-6.872,0.034-10.31,0.034C-0.968,18.021-0.98,17.989-0.993,17.956z"/>
			<path display="inline" fill-rule="evenodd" clip-rule="evenodd" d="M-1.081,3.025
				C2.412,5.043,5.847,7.027,9.345,9.047c-3.479,2.01-6.918,3.997-10.426,6.023C-1.081,11.036-1.081,7.076-1.081,3.025z"/>
		</g>
		<path display="none" fill-rule="evenodd" clip-rule="evenodd" d="M6.784,15.845c0-0.54,0-1.023,0-1.507
			c0-1.497-0.002-2.994,0.004-4.491c0.002-0.171-0.049-0.22-0.217-0.219c-0.91,0.007-1.82,0.005-2.729,0
			c-0.071,0-0.144-0.037-0.215-0.058c0.025-0.057,0.047-0.116,0.077-0.17c0.149-0.26,0.297-0.523,0.452-0.779
			c0.223-0.366,0.457-0.725,0.677-1.093c0.184-0.307,0.35-0.624,0.531-0.933c0.092-0.157,0.205-0.302,0.299-0.459
			C5.8,5.904,5.919,5.66,6.062,5.43C6.278,5.08,6.514,4.74,6.729,4.389C6.891,4.125,7.03,3.847,7.185,3.578
			C7.241,3.48,7.313,3.391,7.376,3.295C7.53,3.054,7.687,2.814,7.835,2.569c0.049-0.081,0.067-0.179,0.113-0.261
			c0.026-0.048,0.08-0.081,0.159-0.156c0,2.106,0,4.155,0,6.228C8.223,8.388,8.323,8.4,8.423,8.401c0.903,0.001,1.807,0,2.71,0.001
			c0.048,0,0.132,0.013,0.135,0.031c0.01,0.05-0.003,0.114-0.029,0.16c-0.188,0.323-0.378,0.647-0.572,0.966
			c-0.052,0.085-0.129,0.155-0.18,0.241c-0.198,0.333-0.386,0.673-0.587,1.005c-0.22,0.362-0.455,0.716-0.675,1.079
			c-0.197,0.328-0.379,0.666-0.573,0.995c-0.214,0.364-0.433,0.726-0.653,1.086c-0.177,0.288-0.364,0.57-0.538,0.861
			c-0.167,0.278-0.319,0.565-0.485,0.845C6.942,15.726,6.877,15.762,6.784,15.845z M6.69,9.592c0-0.004,0-0.007,0-0.011
			c-0.813,0-1.627,0-2.439,0c0,0.004,0,0.007,0,0.011C5.063,9.592,5.878,9.592,6.69,9.592z"/>
		<path display="none" fill-rule="evenodd" clip-rule="evenodd" d="M8.2,17.069c-1.109,0-2.219-0.001-3.328,0
			c-0.592,0.001-1.091-0.215-1.507-0.63c-0.195-0.195-0.41-0.376-0.58-0.591c-0.196-0.248-0.356-0.524-0.524-0.794
			c-0.586-0.94-1.171-1.882-1.753-2.826c-0.44-0.715-0.903-1.417-1.305-2.153C-1.19,9.35-1.116,8.603-0.71,7.897
			c0.873-1.518,1.754-3.031,2.64-4.542c0.271-0.464,0.544-0.93,0.858-1.366c0.336-0.465,0.828-0.711,1.398-0.726
			C5.192,1.237,6.2,1.247,7.206,1.238c1.198-0.011,2.397-0.019,3.597-0.04c0.8-0.014,1.42,0.286,1.975,0.879
			c0.603,0.644,0.956,1.424,1.394,2.159c0.729,1.224,1.433,2.462,2.141,3.698c0.177,0.309,0.373,0.616,0.487,0.949
			c0.231,0.68,0.121,1.319-0.266,1.939c-0.999,1.604-1.966,3.229-2.954,4.839c-0.183,0.299-0.379,0.598-0.614,0.854
			c-0.341,0.372-0.8,0.549-1.3,0.556c-1.155,0.014-2.31,0.004-3.465,0.004C8.2,17.073,8.2,17.071,8.2,17.069z M6.8,15.838
			c0.092-0.083,0.156-0.119,0.189-0.175c0.166-0.278,0.318-0.565,0.484-0.844c0.175-0.291,0.362-0.573,0.539-0.862
			c0.221-0.359,0.439-0.721,0.654-1.085c0.194-0.33,0.376-0.667,0.573-0.995c0.22-0.363,0.455-0.717,0.674-1.079
			c0.201-0.332,0.39-0.672,0.587-1.005c0.052-0.086,0.128-0.156,0.18-0.241c0.194-0.319,0.385-0.641,0.572-0.964
			c0.026-0.046,0.039-0.109,0.03-0.16c-0.003-0.019-0.088-0.031-0.136-0.032c-0.903-0.001-1.807,0-2.71,0
			c-0.1,0-0.199-0.013-0.314-0.021c0-2.073,0-4.122,0-6.228c-0.08,0.076-0.134,0.108-0.16,0.156
			C7.917,2.386,7.899,2.484,7.851,2.565C7.702,2.81,7.546,3.049,7.391,3.29C7.329,3.386,7.257,3.475,7.2,3.574
			C7.046,3.842,6.905,4.12,6.743,4.384C6.528,4.736,6.292,5.075,6.075,5.426c-0.142,0.23-0.261,0.474-0.398,0.707
			C5.585,6.289,5.471,6.434,5.378,6.592C5.198,6.9,5.031,7.218,4.848,7.524c-0.22,0.368-0.454,0.727-0.677,1.092
			C4.015,8.873,3.868,9.134,3.72,9.394c-0.031,0.054-0.053,0.113-0.078,0.17c0.071,0.021,0.143,0.058,0.215,0.058
			c0.91,0.004,1.82,0.007,2.729,0C6.755,9.62,6.804,9.669,6.804,9.84C6.796,11.337,6.8,12.834,6.8,14.332
			C6.8,14.815,6.8,15.298,6.8,15.838z M7.49,16.545c0-0.003,0-0.004,0-0.006c-1.111,0-2.223,0-3.334,0c0,0.002,0,0.003,0,0.006
			C5.268,16.545,6.379,16.545,7.49,16.545z"/>
		<path fill-rule="evenodd" clip-rule="evenodd" d="M9.181,14.099c-0.974,0-1.948,0-2.922,0
			c-0.52,0.001-0.957-0.188-1.323-0.553c-0.171-0.171-0.36-0.33-0.509-0.519c-0.173-0.218-0.313-0.46-0.46-0.697
			c-0.516-0.826-1.029-1.652-1.54-2.482C2.04,9.221,1.634,8.604,1.281,7.958C0.936,7.321,1,6.666,1.356,6.046
			c0.768-1.333,1.54-2.662,2.319-3.989c0.238-0.408,0.478-0.816,0.753-1.2C4.724,0.449,5.156,0.232,5.657,0.22
			c0.884-0.022,1.768-0.014,2.651-0.021c1.052-0.009,2.104-0.017,3.158-0.035c0.701-0.012,1.246,0.251,1.734,0.772
			c0.529,0.566,0.839,1.25,1.223,1.896c0.64,1.075,1.259,2.162,1.88,3.247c0.154,0.271,0.328,0.541,0.429,0.833
			c0.203,0.596,0.105,1.158-0.233,1.703c-0.878,1.41-1.727,2.835-2.595,4.249c-0.16,0.263-0.332,0.525-0.539,0.75
			c-0.3,0.327-0.702,0.482-1.141,0.488c-1.016,0.012-2.028,0.003-3.044,0.003C9.181,14.103,9.181,14.101,9.181,14.099z
			 M7.951,13.019c0.081-0.073,0.138-0.104,0.168-0.153c0.145-0.245,0.278-0.497,0.424-0.741c0.153-0.255,0.318-0.503,0.474-0.757
			c0.194-0.315,0.386-0.632,0.575-0.953c0.171-0.289,0.329-0.585,0.503-0.874c0.192-0.319,0.4-0.63,0.592-0.948
			c0.176-0.292,0.342-0.59,0.516-0.882c0.045-0.075,0.111-0.137,0.156-0.212c0.172-0.28,0.339-0.563,0.504-0.847
			c0.022-0.04,0.034-0.096,0.027-0.14c-0.003-0.016-0.078-0.028-0.12-0.028c-0.794,0-1.586,0-2.379,0
			c-0.089,0-0.176-0.011-0.277-0.018c0-1.82,0-3.619,0-5.469C9.044,1.063,8.996,1.092,8.973,1.134
			C8.932,1.207,8.916,1.293,8.875,1.363C8.743,1.579,8.607,1.789,8.471,2C8.417,2.084,8.353,2.163,8.304,2.25
			C8.168,2.485,8.044,2.729,7.902,2.96C7.714,3.27,7.506,3.567,7.315,3.876c-0.125,0.202-0.229,0.416-0.35,0.62
			C6.885,4.634,6.785,4.761,6.703,4.899c-0.157,0.271-0.305,0.55-0.465,0.819C6.045,6.041,5.839,6.356,5.644,6.677
			C5.506,6.903,5.377,7.132,5.247,7.36C5.22,7.407,5.201,7.46,5.178,7.509c0.063,0.018,0.126,0.051,0.189,0.051
			c0.799,0.003,1.599,0.005,2.396,0c0.149-0.002,0.192,0.042,0.192,0.192c-0.007,1.314-0.004,2.629-0.004,3.943
			C7.951,12.12,7.951,12.545,7.951,13.019z M8.558,13.64c0-0.002,0-0.003,0-0.005c-0.976,0-1.95,0-2.928,0c0,0.001,0,0.002,0,0.005
			C6.607,13.64,7.582,13.64,8.558,13.64z"/>
	</g>
</g>
<g id="busy2" display="none">
	<g display="inline">
		<path fill-rule="evenodd" clip-rule="evenodd" d="M-8.635,60.782c0-2.345,0-4.444,0-6.539
			c0-6.495-0.013-13,0.017-19.498C-8.616,34-8.83,33.79-9.561,33.792c-3.951,0.03-8.158-0.025-12.107-0.048
			c-0.773-0.065-0.419-0.876-0.311-1.079c0.348-0.646,0.973-1.638,1.11-1.869C-20.226,29.664-3.233,1.665-2.891,1.338
			c0,9.143,0,17.413,0,26.408c0.018,0.828,0.496,0.718,0.935,0.719c3.918,0.003,8.278,0,12.197,0.003
			c0.209,0.001,0.573,0.058,0.589,0.137c0.048,0.217-0.019,0.494-0.132,0.693C9.885,30.703-8.233,60.42-8.635,60.782z"/>
	</g>
	<g display="inline">
		<path fill-rule="evenodd" clip-rule="evenodd" d="M-8.635,60.782c0-2.345,0-4.444,0-6.539
			c0-6.495-0.013-13,0.017-19.498C-8.616,34-8.83,33.79-9.561,33.792c-3.951,0.03-8.158-0.025-12.107-0.048
			c-0.773-0.065-0.419-0.876-0.311-1.079c0.348-0.646,0.973-1.638,1.11-1.869C-20.226,29.664-3.233,1.665-2.891,1.338
			c0,9.143,0,17.413,0,26.408c0.018,0.828,0.496,0.718,0.935,0.719c3.918,0.003,8.278,0,12.197,0.003
			c0.209,0.001,0.573,0.058,0.589,0.137c0.048,0.217-0.019,0.494-0.132,0.693C9.885,30.703-8.233,60.42-8.635,60.782z"/>
	</g>
</g>
<g id="steemit">
	<path fill-rule="evenodd" clip-rule="evenodd" d="M1.634,14.577c0.168-0.082,0.32-0.151,0.464-0.227
		c0.532-0.28,1.014-0.622,1.392-1.09c0.173-0.214,0.308-0.449,0.398-0.708c0.027-0.075,0.015-0.113-0.058-0.154
		c-0.71-0.404-1.338-0.908-1.872-1.52c-0.76-0.871-1.271-1.862-1.472-2.992c-0.272-1.54,0.022-2.979,0.867-4.302
		c0.818-1.282,1.972-2.183,3.383-2.778c0.816-0.344,1.67-0.544,2.554-0.618C7.957,0.135,8.624,0.152,9.293,0.19
		c0.486,0.028,0.973,0.073,1.453,0.135c1.082,0.141,2.117,0.453,3.113,0.884c0.138,0.06,0.271,0.123,0.407,0.183
		c0.008,0.004,0.017,0.011,0.035,0.024c-0.035,0.016-0.063,0.028-0.096,0.043c-0.271,0.138-0.556,0.26-0.815,0.42
		c-0.582,0.362-0.862,0.897-0.881,1.567c-0.002,0.059,0.009,0.123-0.009,0.176c-0.032,0.104,0.018,0.141,0.103,0.181
		c1.136,0.552,2.083,1.322,2.807,2.345c0.574,0.814,0.949,1.711,1.071,2.696c0.255,2.089-0.451,3.849-1.964,5.308
		c-1.064,1.028-2.359,1.655-3.814,1.967c-0.776,0.166-1.56,0.212-2.355,0.171c-2.062-0.102-4.026-0.599-5.926-1.374
		C2.162,14.813,1.908,14.697,1.634,14.577z M4.352,14.323c0.042,0.017,0.071,0.03,0.099,0.037c0.527,0.129,1.052,0.273,1.583,0.382
		c0.781,0.162,1.577,0.25,2.373,0.293c0.613,0.034,1.229,0.052,1.835-0.063c1.316-0.248,2.494-0.784,3.448-1.712
		c1.487-1.446,1.958-3.17,1.266-5.123c-0.794-2.25-3.176-3.648-5.674-3.254c-1.585,0.251-2.806,1.063-3.64,2.409
		C5.069,8.216,4.861,9.228,4.965,10.3c0.061,0.608,0.256,1.179,0.535,1.722c0.063,0.122,0.085,0.238,0.07,0.369
		c-0.008,0.065-0.013,0.13-0.028,0.193c-0.138,0.621-0.466,1.132-0.953,1.547C4.518,14.195,4.438,14.252,4.352,14.323z"/>
	<g display="none">
		<path display="inline" fill-rule="evenodd" clip-rule="evenodd" d="M11.039,10.269
			c0-0.172,0.002-0.347-0.003-0.519c-0.001-0.066,0.023-0.109,0.091-0.12c0.122-0.021,0.241-0.046,0.364-0.062
			c0.107-0.015,0.208,0.019,0.288,0.093c0.043,0.037,0.075,0.03,0.12,0.005c0.132-0.077,0.271-0.124,0.43-0.085
			c0.182,0.045,0.313,0.2,0.314,0.382c0.003,0.28,0.005,0.559,0.002,0.838c-0.002,0.032-0.032,0.063-0.05,0.096
			c-0.019-0.032-0.054-0.063-0.054-0.095c-0.007-0.271-0.005-0.542-0.007-0.812c0-0.227-0.181-0.369-0.407-0.321
			c-0.018,0.004-0.035,0.008-0.055,0.014c-0.17,0.05-0.178,0.063-0.178,0.236c0.001,0.29,0.001,0.577,0.001,0.865
			c0,0.038,0.021,0.092-0.048,0.093c-0.066,0-0.054-0.051-0.054-0.09c-0.002-0.27-0.012-0.542,0.002-0.811
			c0.012-0.24-0.174-0.33-0.346-0.32c-0.079,0.006-0.158,0.029-0.237,0.043c-0.058,0.011-0.073,0.046-0.073,0.101
			c0.003,0.309,0.003,0.618,0.004,0.927c0,0.026,0.008,0.055-0.001,0.079c-0.009,0.027-0.034,0.049-0.051,0.074
			c-0.018-0.024-0.052-0.049-0.052-0.072c-0.007-0.151-0.005-0.3-0.005-0.451c0-0.029,0-0.059,0-0.089H11.039z"/>
		<path display="inline" fill-rule="evenodd" clip-rule="evenodd" d="M6.382,10.902
			c-0.105-0.031-0.213-0.057-0.316-0.092c-0.021-0.008-0.032-0.05-0.048-0.077c0.03-0.004,0.061-0.018,0.087-0.009
			c0.128,0.043,0.255,0.086,0.394,0.063c0.108-0.02,0.172-0.076,0.195-0.171c0.024-0.11-0.005-0.19-0.104-0.25
			c-0.065-0.04-0.14-0.069-0.209-0.102c-0.043-0.02-0.088-0.037-0.132-0.058c-0.189-0.091-0.255-0.202-0.222-0.366
			c0.034-0.174,0.147-0.269,0.357-0.268c0.113,0,0.229,0.035,0.344,0.061c0.018,0.004,0.029,0.039,0.044,0.06
			c-0.025,0.008-0.05,0.025-0.073,0.021C6.588,9.7,6.476,9.67,6.364,9.665C6.243,9.658,6.169,9.72,6.143,9.82
			c-0.026,0.106,0.007,0.193,0.11,0.253c0.057,0.034,0.12,0.056,0.18,0.082c0.057,0.025,0.116,0.047,0.173,0.076
			c0.169,0.093,0.226,0.214,0.185,0.387c-0.035,0.152-0.166,0.255-0.341,0.265c-0.02,0.002-0.04,0-0.063,0
			C6.387,10.889,6.384,10.896,6.382,10.902z"/>
		<path display="inline" fill-rule="evenodd" clip-rule="evenodd" d="M14.353,10.775
			c0.042,0.018,0.122,0.045,0.12,0.051c-0.02,0.077-0.086,0.033-0.133,0.038c-0.037,0.005-0.077-0.004-0.116-0.012
			c-0.193-0.034-0.248-0.097-0.25-0.292c0-0.475,0-0.952,0-1.428c0-0.014-0.003-0.031,0.003-0.043
			c0.011-0.021,0.029-0.037,0.044-0.055c0.014,0.018,0.042,0.035,0.043,0.055c0.003,0.095,0.002,0.194,0.002,0.291
			c0.001,0.22,0.001,0.22,0.231,0.217c0.033,0,0.067-0.005,0.099,0c0.029,0.006,0.057,0.026,0.083,0.039
			c-0.028,0.016-0.058,0.041-0.087,0.043c-0.081,0.007-0.162,0.006-0.245,0.006c-0.055-0.001-0.08,0.021-0.08,0.078
			c0.001,0.265-0.003,0.529-0.001,0.794C14.065,10.722,14.148,10.788,14.353,10.775z"/>
		<path display="inline" fill-rule="evenodd" clip-rule="evenodd" d="M10.439,10.733
			c0.018,0.021,0.029,0.057-0.028,0.079c-0.184,0.074-0.371,0.104-0.563,0.034c-0.169-0.061-0.258-0.186-0.261-0.363
			c-0.001-0.155,0.008-0.312-0.001-0.467c-0.025-0.382,0.316-0.479,0.566-0.423c0.237,0.054,0.351,0.2,0.352,0.432
			c0.002,0.237,0.025,0.224-0.228,0.224c-0.164,0.001-0.329,0.004-0.495,0.004c-0.059,0-0.089,0.018-0.086,0.082
			c0.006,0.052,0.002,0.105,0.002,0.158c0.002,0.184,0.109,0.308,0.299,0.305C10.137,10.795,10.277,10.758,10.439,10.733z
			 M10.386,10.149c0.014-0.167,0.023-0.324-0.136-0.426C10.138,9.65,9.933,9.657,9.823,9.737c-0.149,0.104-0.13,0.255-0.119,0.412
			C9.933,10.149,10.153,10.149,10.386,10.149z"/>
		<path display="inline" fill-rule="evenodd" clip-rule="evenodd" d="M8.194,10.21c0-0.081-0.001-0.16,0-0.239
			c0.005-0.258,0.209-0.438,0.473-0.398C8.771,9.589,8.877,9.636,8.97,9.69c0.097,0.057,0.146,0.151,0.138,0.27
			c-0.003,0.05,0.001,0.101,0.003,0.15c0.001,0.119-0.011,0.134-0.13,0.135c-0.193,0.001-0.386,0.006-0.579,0.002
			c-0.074-0.002-0.102,0.021-0.094,0.096c0.004,0.04,0.001,0.081,0.001,0.122c0,0.221,0.117,0.341,0.345,0.33
			c0.102-0.004,0.204-0.043,0.305-0.063c0.03-0.006,0.062,0.004,0.093,0.006c-0.021,0.026-0.035,0.068-0.063,0.079
			c-0.164,0.063-0.336,0.09-0.511,0.031c-0.182-0.06-0.28-0.188-0.283-0.374C8.193,10.385,8.194,10.297,8.194,10.21z M8.653,10.148
			c0,0,0,0,0-0.001c0.059,0,0.114,0,0.172,0c0.192,0,0.192,0,0.176-0.188C8.986,9.792,8.871,9.68,8.698,9.666
			C8.51,9.651,8.354,9.739,8.319,9.892c-0.016,0.06-0.009,0.126-0.014,0.19c-0.003,0.052,0.021,0.067,0.07,0.067
			C8.47,10.146,8.562,10.148,8.653,10.148z"/>
		<path display="inline" fill-rule="evenodd" clip-rule="evenodd" d="M7.416,9.698
			C7.407,9.711,7.402,9.715,7.402,9.72c0,0.303,0,0.604,0.006,0.907c0.003,0.082,0.066,0.13,0.15,0.143
			c0.063,0.011,0.131,0.009,0.197,0.018c0.017,0.003,0.03,0.027,0.047,0.04c-0.016,0.015-0.034,0.043-0.045,0.042
			c-0.111-0.014-0.226-0.018-0.326-0.056c-0.054-0.021-0.096-0.1-0.122-0.161c-0.023-0.048-0.018-0.11-0.018-0.165
			c0.001-0.45,0.002-0.899,0.004-1.348c0-0.012-0.003-0.026,0.002-0.034c0.014-0.024,0.033-0.046,0.05-0.069
			C7.361,9.063,7.39,9.086,7.392,9.11c0.004,0.125,0.008,0.252,0.001,0.378C7.39,9.572,7.416,9.606,7.505,9.599
			c0.068-0.006,0.139-0.005,0.208,0.002c0.03,0.004,0.078,0.027,0.083,0.047c0.011,0.058-0.042,0.048-0.08,0.048
			C7.614,9.698,7.512,9.698,7.416,9.698z"/>
		<path display="inline" fill-rule="evenodd" clip-rule="evenodd" d="M13.243,10.231c0-0.19,0-0.381,0-0.573
			c0-0.039-0.003-0.079,0.057-0.08c0.06,0,0.063,0.038,0.063,0.083c0,0.382,0,0.765,0,1.146c0,0.046-0.005,0.086-0.062,0.086
			c-0.063,0-0.058-0.047-0.058-0.09C13.243,10.614,13.243,10.422,13.243,10.231z"/>
		<path fill-rule="evenodd" clip-rule="evenodd" d="M13.301,9.224c-0.038-0.053-0.073-0.083-0.072-0.111
			c0.002-0.025,0.05-0.073,0.068-0.068c0.03,0.007,0.069,0.044,0.075,0.074C13.379,9.141,13.337,9.173,13.301,9.224z"/>
	</g>
</g>
<g id="dtube" display="none">
	<g display="inline">
		<path fill-rule="evenodd" clip-rule="evenodd" d="M2.302,15.067c1.888-1.387,3.65-2.843,6.208-2.518
			c1.753,0.223,3.65,0.208,4.515-1.794c0.962-2.227,0.986-4.527-0.244-6.688c-0.733-1.287-2.073-1.535-3.387-1.355
			C6.677,3.083,4.513,1.962,2.468,0c3.332,0.185,5.73-0.067,9.255,0.177c3.448,0.238,5.609,4.872,4.974,9.199
			c-0.49,3.327-2.902,5.569-6.277,5.674C7.717,15.134,5.008,15.067,2.302,15.067z"/>
		<path fill-rule="evenodd" clip-rule="evenodd" d="M1.973,2.705c2.904,1.68,5.588,3.231,8.53,4.932
			c-2.946,1.702-5.656,3.268-8.53,4.927C1.973,9.199,1.973,6.089,1.973,2.705z"/>
	</g>
</g>
<g id="zappl" display="none">
	<g display="inline">
		<polygon points="2.11,0.32 2.11,5.075 8.529,5.075 2.835,9.853 16.804,0.32 		"/>
		<polygon points="16.804,9.938 10.469,9.938 16.186,5.086 2.11,14.587 16.804,14.587 		"/>
	</g>
</g>
<g id="discord" display="none">
	<g display="inline">
		<path fill-rule="evenodd" clip-rule="evenodd" d="M12.873,13.472c0.151,0.552,0.275,0.999,0.422,1.526
			c-0.202,0-0.358,0-0.515,0c-2.908,0-5.816,0.002-8.726,0c-1.362-0.001-2.012-0.644-2.012-1.994c-0.002-3.605-0.002-7.209,0-10.814
			c0-1.368,0.633-2.002,1.993-2.002c3.605-0.001,7.21-0.002,10.814,0c1.241,0,1.908,0.661,1.909,1.904
			c0.004,4.786,0.002,9.573,0.001,14.358c0,0.128-0.021,0.255-0.041,0.499C15.417,15.771,14.188,14.662,12.873,13.472z
			 M12.159,4.845C9.782,4.283,9.268,4.208,6.412,4.931c0.569-0.254,1.136-0.508,1.817-0.813c-0.742-0.04-1.285,0.189-1.828,0.437
			C5.94,4.765,5.634,5.089,5.439,5.573C5.002,6.675,4.724,7.81,4.547,8.982c-0.121,0.805,0.154,1.351,0.858,1.7
			c0.282,0.14,0.574,0.272,0.877,0.356c0.788,0.22,0.887,0.167,1.311-0.55c-0.385-0.236-0.769-0.472-1.152-0.709
			C6.458,9.74,6.476,9.704,6.494,9.665c1.998,1.003,4.004,1.036,6.016-0.013c0.013,0.047,0.025,0.094,0.037,0.141
			c-0.421,0.241-0.841,0.481-1.265,0.723c0.256,0.345,0.44,0.733,0.997,0.609c0.712-0.158,1.367-0.41,1.86-0.961
			c0.125-0.141,0.21-0.369,0.212-0.56c0.016-1.194-0.337-2.317-0.651-3.458c-0.331-1.205-1.164-1.731-2.273-1.983
			c-0.218-0.049-0.449-0.042-0.673-0.061c-0.004,0.036-0.008,0.071-0.014,0.106C11.213,4.421,11.687,4.633,12.159,4.845z"/>
		<path fill-rule="evenodd" clip-rule="evenodd" d="M10.956,7.227c0.455,0.002,0.863,0.453,0.854,0.945
			C11.802,8.68,11.4,9.09,10.928,9.076c-0.456-0.013-0.828-0.42-0.832-0.909C10.09,7.671,10.499,7.225,10.956,7.227z"/>
		<path fill-rule="evenodd" clip-rule="evenodd" d="M8.725,8.163C8.721,8.682,8.341,9.086,7.86,9.077
			C7.399,9.068,7.032,8.673,7.023,8.175c-0.009-0.5,0.389-0.945,0.849-0.949C8.342,7.223,8.727,7.648,8.725,8.163z"/>
	</g>
</g>
</svg>
